<?xml version="1.0" standalone="no"?>
<!DOCTYPE svg PUBLIC "-//W3C//DTD SVG 20010904//EN"
 "http://www.w3.org/TR/2001/REC-SVG-20010904/DTD/svg10.dtd">
<svg version="1.0" xmlns="http://www.w3.org/2000/svg"
 width="24.000000pt" height="24.000000pt" viewBox="0 0 24.000000 24.000000"
 preserveAspectRatio="xMidYMid meet">

<g transform="translate(0.000000,24.000000) scale(0.100000,-0.100000)"
fill="#000000" stroke="none">
<path d="M14 217 c-2 -7 -3 -56 -2 -108 l3 -94 48 -3 c28 -2 47 1 47 7 0 6
-18 11 -40 11 l-40 0 0 90 c0 89 0 90 25 90 22 0 25 -4 25 -34 0 -32 1 -33 40
-33 39 0 40 1 40 33 0 30 3 34 25 34 23 0 25 -4 25 -40 0 -22 5 -40 11 -40 6
0 9 19 7 48 l-3 47 -103 3 c-79 2 -104 0 -108 -11z m126 -27 c0 -13 -7 -20
-20 -20 -13 0 -20 7 -20 20 0 13 7 20 20 20 13 0 20 -7 20 -20z"/>
<path d="M130 110 c-11 -11 -20 -29 -20 -40 0 -26 34 -60 60 -60 26 0 60 34
60 60 0 26 -34 60 -60 60 -11 0 -29 -9 -40 -20z m70 -15 c26 -32 -13 -81 -47
-59 -10 6 -19 19 -21 28 -8 38 43 61 68 31z"/>
<path d="M152 84 c-11 -12 -10 -17 2 -30 15 -14 17 -14 32 0 14 14 14 18 0 31
-18 18 -18 18 -34 -1z"/>
</g>
</svg>
