<?xml version="1.0" standalone="no"?>
<!DOCTYPE svg PUBLIC "-//W3C//DTD SVG 20010904//EN"
 "http://www.w3.org/TR/2001/REC-SVG-20010904/DTD/svg10.dtd">
<svg version="1.0" xmlns="http://www.w3.org/2000/svg"
 width="24.000000pt" height="24.000000pt" viewBox="0 0 24.000000 24.000000"
 preserveAspectRatio="xMidYMid meet">

<g transform="translate(0.000000,24.000000) scale(0.100000,-0.100000)"
fill="#000000" stroke="none">
<path d="M4 227 c-2 -7 -3 -60 -2 -118 l3 -104 53 -3 c31 -2 52 1 52 7 0 6
-20 11 -45 11 l-45 0 0 100 0 100 25 0 c22 0 25 -4 25 -33 0 -33 0 -33 50 -33
50 0 50 0 50 33 0 29 3 33 25 33 23 0 25 -4 25 -45 0 -25 5 -45 11 -45 6 0 9
21 7 53 l-3 52 -113 3 c-87 2 -114 0 -118 -11z m146 -27 c0 -16 -7 -20 -30
-20 -23 0 -30 4 -30 20 0 16 7 20 30 20 23 0 30 -4 30 -20z"/>
<path d="M130 110 c-40 -40 -11 -110 45 -110 56 0 85 70 45 110 -11 11 -31 20
-45 20 -14 0 -34 -9 -45 -20z m78 -12 c15 -15 15 -51 0 -66 -28 -28 -78 -7
-78 33 0 40 50 61 78 33z"/>
<path d="M165 80 c-3 -5 1 -13 10 -16 22 -9 29 1 11 15 -10 8 -16 9 -21 1z"/>
<path d="M45 80 c8 -13 32 -13 40 0 4 6 -5 10 -20 10 -15 0 -24 -4 -20 -10z"/>
<path d="M40 50 c0 -5 12 -10 26 -10 14 0 23 4 19 10 -3 6 -15 10 -26 10 -10
0 -19 -4 -19 -10z"/>
</g>
</svg>
