<?xml version="1.0" standalone="no"?>
<!DOCTYPE svg PUBLIC "-//W3C//DTD SVG 20010904//EN"
 "http://www.w3.org/TR/2001/REC-SVG-20010904/DTD/svg10.dtd">
<svg version="1.0" xmlns="http://www.w3.org/2000/svg"
 width="32.000000pt" height="32.000000pt" viewBox="0 0 32.000000 32.000000"
 preserveAspectRatio="xMidYMid meet">

<g transform="translate(0.000000,32.000000) scale(0.100000,-0.100000)"
fill="#000000" stroke="none">
<path d="M43 305 c-22 -15 -23 -23 -23 -145 0 -126 1 -130 24 -145 16 -11 41
-15 75 -13 60 3 69 22 14 26 -88 6 -83 -2 -83 132 0 134 -5 126 85 132 57 4
45 22 -17 26 -36 2 -60 -2 -75 -13z"/>
<path d="M210 226 c0 -7 7 -20 17 -27 14 -12 8 -15 -48 -19 -48 -4 -64 -9 -64
-20 0 -11 16 -16 64 -20 56 -4 62 -7 48 -19 -20 -16 -22 -41 -4 -41 18 0 77
62 77 81 0 18 -61 79 -78 79 -7 0 -12 -6 -12 -14z"/>
</g>
</svg>
