<?xml version="1.0" standalone="no"?>
<!DOCTYPE svg PUBLIC "-//W3C//DTD SVG 20010904//EN"
 "http://www.w3.org/TR/2001/REC-SVG-20010904/DTD/svg10.dtd">
<svg version="1.0" xmlns="http://www.w3.org/2000/svg"
 width="24.000000pt" height="24.000000pt" viewBox="0 0 24.000000 24.000000"
 preserveAspectRatio="xMidYMid meet">

<g transform="translate(0.000000,24.000000) scale(0.100000,-0.100000)"
fill="#000000" stroke="none">
<path d="M32 218 c-16 -16 -16 -180 0 -196 16 -16 160 -16 176 0 16 16 16 180
0 196 -16 16 -160 16 -176 0z m168 -98 l0 -90 -80 0 -80 0 0 90 0 90 80 0 80
0 0 -90z"/>
<path d="M150 175 c-9 -11 -17 -12 -32 -4 -22 12 -48 -3 -48 -29 0 -13 2 -13
18 1 13 12 22 13 35 5 14 -7 22 -6 32 9 23 30 18 46 -5 18z"/>
<path d="M70 100 c0 -5 23 -10 50 -10 28 0 50 5 50 10 0 6 -22 10 -50 10 -27
0 -50 -4 -50 -10z"/>
<path d="M70 60 c0 -5 14 -10 31 -10 17 0 28 4 24 10 -3 6 -17 10 -31 10 -13
0 -24 -4 -24 -10z"/>
</g>
</svg>
